# xmcd CD database file
#
# Track frame offsets:
#	150
#	5157
#	15197
#	36212
#	37493
#	67310
#	72680
#	90976
#	104171
#	115172
#	131237
#	134998
#	144282
#	159193
#	172915
#	186146
#	204171
#	212007
#	232238
#	254185
#	262823
#	275998
#	306322
#	314706
#
# Disc length: 4562 seconds
#
# Revision: 0
# Processed by: cddbd v1.5.2PL0 Copyright (c) Steve Scherf et al.
# Submitted via: CDex 1.51
#
DISCID=8111d018
DTITLE=Rozni - Jonasz Kofta na bis
DYEAR=2003
DGENRE=Jazz
TTITLE0=slowo - Poniedzielski
TTITLE1=Niekochani - Serafinska
TTITLE2=Trzeba marzyc - Serafinska
TTITLE3=slowo - Poniedzielski
TTITLE4=Piasek - Serafinska, Janowski
TTITLE5=slowo - Poniedzielski
TTITLE6=Popoludnie - Szrom
TTITLE7=Wakacje z blondynka - Szrom
TTITLE8=slowo - Poniedzielski
TTITLE9=Koniec dnia - Groniec
TTITLE10=slowo - Poniedzielski
TTITLE11=Liliowy negr - Lazuka
TTITLE12=Buba - Lazuka
TTITLE13=slowo - Poniedzielski
TTITLE14=Ballada z filmu 'Sam na Sam' - Adamiak
TTITLE15=Kwiat jednej nocy - Adamiak
TTITLE16=slowo - Poniedzielski
TTITLE17=Jej portret - Jopek
TTITLE18=Do lezki lezka - Jopek
TTITLE19=slowo - Poniedzielski
TTITLE20=Po karnawale - Banaszak
TTITLE21=Samba przed rozstaniem - Banaszak
TTITLE22=Gdy musze odejsc - Janowski
TTITLE23=Pamietajcie o ogrodach - Poniedzielski i wszyscy
EXTD=YEAR: 2003
EXTT0=
EXTT1=
EXTT2=
EXTT3=
EXTT4=
EXTT5=
EXTT6=
EXTT7=
EXTT8=
EXTT9=
EXTT10=
EXTT11=
EXTT12=
EXTT13=
EXTT14=
EXTT15=
EXTT16=
EXTT17=
EXTT18=
EXTT19=
EXTT20=
EXTT21=
EXTT22=
EXTT23=
PLAYORDER=
